<svg xmlns="http://www.w3.org/2000/svg" viewBox="0 0 241.7334 114.04346"><defs><style>.cls-1{fill:#fff;}</style></defs><g id="Layer_2" data-name="Layer 2"><g id="GIK_LOGO" data-name="GIK LOGO"><path class="cls-1" d="M118.25,1.5v94h-3V1.5Zm-10.5,94h3V1.5h-3Zm-7.5,0h3V1.5h-3Zm-7.5,0h3V1.5h-3Z"/><path class="cls-1" d="M154.25,1.5v94h-3V1.5Zm-10.5,94h3V1.5h-3Zm-7.5,0h3V1.5h-3Zm-7.5,0h3V1.5h-3Z"/><path class="cls-1" d="M42.5,97A42.21957,42.21957,0,0,1,12.44824,84.55176C1.479,73.584,0,60.17285,0,48.5,0,37.51025,1.415,23.481,12.44824,12.44824a42.49925,42.49925,0,0,1,60.104,0l-2.1211,2.1211a39.50031,39.50031,0,0,0-55.86181,0C6.46,22.67871,3,32.82568,3,48.5,3,59.55762,4.37451,72.23633,14.56934,82.43066a39.50031,39.50031,0,0,0,55.86181,0C81.13135,71.73047,82.61133,55.35352,81.83691,43H42.50049V40H84.62354l.10742,1.38379c1.019,13.11816-.2666,31.25586-12.17871,43.168A42.22238,42.22238,0,0,1,42.5,97ZM67.249,79.24805a31.75479,31.75479,0,0,0,8.50635-14.86133,60.145,60.145,0,0,0,1.73828-15.37891L77.501,47.5H42.50049v3H74.4751a54.67236,54.67236,0,0,1-1.61817,13.11328,28.86907,28.86907,0,0,1-7.729,13.51367,31.99952,31.99952,0,0,1-45.25537,0C13.21533,70.46973,10.5,62.17676,10.5,48.5c0-13.49609,2.80322-22.05762,9.37256-28.62744a32.0007,32.0007,0,0,1,45.25537,0l2.12109-2.1211a34.99963,34.99963,0,0,0-49.49756,0C10.56592,24.937,7.5,34.13281,7.5,48.5c0,14.55859,2.97021,23.46777,10.25146,30.74805a34.99844,34.99844,0,0,0,49.49756,0Zm-5.30371-5.30274c4.21-4.21,6.77344-10.02051,7.61914-17.27148L69.75977,55H42.50049v3H66.354c-.93554,5.83984-3.08007,10.374-6.52978,13.82422a24.49932,24.49932,0,0,1-34.64844-.001C20.86865,67.5166,18,61.90234,18,48.5c0-11.46924,2.0791-18.227,7.17627-23.32422a24.5005,24.5005,0,0,1,34.64844,0l2.12109-2.12109a27.49939,27.49939,0,0,0-38.89062,0C17.3335,28.77588,15,36.148,15,48.5c0,14.43359,3.21973,20.61035,8.0542,25.44434a27.49881,27.49881,0,0,0,38.89111.001Zm-2.30957-9.23144L60.8335,62.5h-18.333v3h12.9873A17.39728,17.39728,0,0,1,42.5,71.5a16.88589,16.88589,0,0,1-12.021-4.98047C27.95947,64,25.5,60.53418,25.5,48.5c0-10.82324,1.99072-15.03174,4.98-18.021a17.00029,17.00029,0,0,1,24.0415,0l2.1211-2.12109a19.99919,19.99919,0,0,0-28.28369,0C24.84229,31.87451,22.5,36.64551,22.5,48.5c0,13.18066,2.894,17.17773,5.85742,20.14062A19.86851,19.86851,0,0,0,42.5,74.5C49.58252,74.5,56.46875,70.56738,59.63574,64.71387Z"/><polygon class="cls-1" points="205.705 95.5 209.299 95.5 178.844 49.326 210.389 1.5 206.795 1.5 175.25 49.326 205.705 95.5"/><polygon class="cls-1" points="198.205 95.5 201.799 95.5 171.344 49.326 202.889 1.5 199.295 1.5 167.75 49.326 198.205 95.5"/><polygon class="cls-1" points="190.705 95.5 194.299 95.5 163.844 49.326 195.389 1.5 191.795 1.5 160.25 49.326 190.705 95.5"/><polygon class="cls-1" points="186.799 95.5 156.344 49.326 187.888 1.5 184.295 1.5 152.75 49.326 183.205 95.5 186.799 95.5"/><path class="cls-1" d="M235.35254,79.88623v9.82813l6.043,2.2246v3.23829L217.93457,86.105V83.38232l23.46094-8.92675v3.23925Zm-2.6582,8.8457v-7.8955l-10.6836,3.86718v.09668Z"/><path class="cls-1" d="M219.75488,67.91357h4.20606V64.61084h2.35254v3.30273h10.58593a2.374,2.374,0,0,0,1.72461-.50683,1.8361,1.8361,0,0,0,.499-1.3457,3.18272,3.18272,0,0,0-.06446-.6045,3.7097,3.7097,0,0,0-.16113-.58789l2.17578-.41894a2.81176,2.81176,0,0,1,.47559,1.03906,5.27733,5.27733,0,0,1,.18457,1.37793,4.11,4.11,0,0,1-1.168,3.07812,5.07356,5.07356,0,0,1-3.666,1.14356H226.31348v2.77148h-2.35254V71.08838h-4.20606Z"/><path class="cls-1" d="M241.39551,57.26318V60.437H216.25879V57.26318Z"/><path class="cls-1" d="M241.7334,45.146a7.35419,7.35419,0,0,1-2.42481,5.793,9.12927,9.12927,0,0,1-6.292,2.1504h-.709a8.94074,8.94074,0,0,1-6.19532-2.21485,6.82462,6.82462,0,0,1-2.47363-5.24512,6.603,6.603,0,0,1,2.127-5.333,8.47362,8.47362,0,0,1,5.67188-1.80469H233.419V49.80225l.08007.04882a6.85184,6.85184,0,0,0,4.12207-1.27343,4.05633,4.05633,0,0,0,1.61524-3.43164,7.99965,7.99965,0,0,0-.459-2.82813,6.515,6.515,0,0,0-1.26562-2.10254l2.06543-1.24121a7.38464,7.38464,0,0,1,1.54,2.46582A9.92347,9.92347,0,0,1,241.7334,45.146Zm-15.59766.48339a3.44439,3.44439,0,0,0,1.34082,2.72364,6.33577,6.33577,0,0,0,3.36524,1.38476l.08008-.03125v-8.041h-.418a4.83934,4.83934,0,0,0-3.11524.999A3.56509,3.56509,0,0,0,226.13574,45.62939Z"/><path class="cls-1" d="M219.75488,30.73975h4.20606V27.437h2.35254v3.30274h10.58593a2.374,2.374,0,0,0,1.72461-.50684,1.8361,1.8361,0,0,0,.499-1.3457,3.18272,3.18272,0,0,0-.06446-.6045,3.7097,3.7097,0,0,0-.16113-.58789l2.17578-.41894a2.81184,2.81184,0,0,1,.47559,1.03906,5.27733,5.27733,0,0,1,.18457,1.37793,4.11006,4.11006,0,0,1-1.168,3.07813,5.0736,5.0736,0,0,1-3.666,1.14355H226.31348V36.686h-2.35254V33.91455h-4.20606Z"/><path class="cls-1" d="M219.49707,20.08936v3.17382h-3.23828V20.08936Zm21.89844,0v3.17382H223.96094V20.08936Z"/><path class="cls-1" d="M233.32227,9.95459v2.0625h8.07324v3.17383H216.25879V12.01709H230.8252V9.98584l-6.86426-4.76953V1.41357L231.875,7.37646l9.52051-6.8164V4.29834Z"/><path class="cls-1" d="M15.39648,112.65967a3.22944,3.22944,0,0,1-1.209.95508,4.76375,4.76375,0,0,1-2.16211.42871,3.76407,3.76407,0,0,1-2.748-1.05762,3.65444,3.65444,0,0,1-1.0791-2.73242v-1.92969a3.77416,3.77416,0,0,1,1.01856-2.73242,3.49156,3.49156,0,0,1,2.63086-1.05664,3.691,3.691,0,0,1,2.53613.80273,2.721,2.721,0,0,1,.92383,2.0918l-.0127.03809h-1.46a1.78851,1.78851,0,0,0-.543-1.22852,1.9912,1.9912,0,0,0-1.4248-.4668,1.90236,1.90236,0,0,0-1.5459.7168,2.77732,2.77732,0,0,0-.58691,1.82031v1.94043a2.66667,2.66667,0,0,0,.63769,1.83594,2.10536,2.10536,0,0,0,1.65332.71973,3.44544,3.44544,0,0,0,1.17481-.167,1.61782,1.61782,0,0,0,.65332-.39648v-1.874h-1.834V109.2124h3.377Z"/><path class="cls-1" d="M25.60449,109.75244H21.56055v2.91992H26.251v1.23731H20.01855v-9.24219H26.207v1.23828H21.56055v2.6084h4.04394Z"/><path class="cls-1" d="M37.5,113.90967H35.96387l-4.10059-6.74707-.03808.01269v6.73438h-1.542v-9.24219h1.542l4.10058,6.74121.03809-.01269v-6.72852H37.5Z"/><path class="cls-1" d="M48.57129,105.90576h-2.793v8.00391h-1.542v-8.00391h-2.793v-1.23828h7.12793Z"/><path class="cls-1" d="M59.52148,110.12061A3.90541,3.90541,0,0,1,58.458,112.9292a3.64265,3.64265,0,0,1-2.75781,1.11426A3.52534,3.52534,0,0,1,52.999,112.9292a3.96153,3.96153,0,0,1-1.03711-2.80859v-1.66309a3.96252,3.96252,0,0,1,1.03711-2.80566,3.509,3.509,0,0,1,2.69532-1.11719,3.64519,3.64519,0,0,1,2.76074,1.11719,3.90038,3.90038,0,0,1,1.0664,2.80566Zm-1.53613-1.67579a2.863,2.863,0,0,0-.61914-1.89843,2.0617,2.0617,0,0,0-1.67187-.74219,1.94151,1.94151,0,0,0-1.60645.74219,2.95712,2.95712,0,0,0-.59082,1.89843v1.67579a2.98835,2.98835,0,0,0,.59082,1.91308,1.94275,1.94275,0,0,0,1.61231.7461,2.05188,2.05188,0,0,0,1.67285-.74219,2.91582,2.91582,0,0,0,.6123-1.917Z"/><path class="cls-1" d="M69.5127,109.96826H65.46289v3.94141h-1.542v-9.24219h6.23926v1.23828H65.46289V108.73H69.5127Z"/><path class="cls-1" d="M80.63477,105.90576h-2.793v8.00391h-1.542v-8.00391h-2.793v-1.23828h7.12793Z"/><path class="cls-1" d="M90.15723,109.75244H86.11328v2.91992h4.69043v1.23731H84.57129v-9.24219h6.18848v1.23828H86.11328v2.6084h4.04395Z"/><path class="cls-1" d="M102.43359,113.90967h-1.543v-9.24219h1.543Z"/><path class="cls-1" d="M107.27148,113.90967v-9.24219h2.9961a3.874,3.874,0,0,1,2.85937,1.09863,3.816,3.816,0,0,1,1.10157,2.82422v1.40332a3.80226,3.80226,0,0,1-1.10157,2.82422,3.88464,3.88464,0,0,1-2.85937,1.0918Zm1.542-8.00391v6.7666h1.40918a2.27769,2.27769,0,0,0,1.80566-.749,2.81984,2.81984,0,0,0,.65723-1.93359v-1.41407a2.8044,2.8044,0,0,0-.65723-1.92187,2.277,2.277,0,0,0-1.80566-.748Z"/><path class="cls-1" d="M120.08789,110.07568v3.834h-1.542v-9.24219H121.96a3.66161,3.66161,0,0,1,2.39356.69824,2.44191,2.44191,0,0,1,.84472,1.99317,2.05631,2.05631,0,0,1-.37207,1.23437,2.54625,2.54625,0,0,1-1.082.8291,1.93568,1.93568,0,0,1,1.124.8086,2.60669,2.60669,0,0,1,.3418,1.38086v.76855a3.12523,3.12523,0,0,0,.10156.793,1.11843,1.11843,0,0,0,.34375.59082v.14551h-1.58789a1.03477,1.03477,0,0,1-.32617-.66016,5.48955,5.48955,0,0,1-.07324-.88183v-.74317a1.55585,1.55585,0,0,0-.40625-1.12988,1.48378,1.48378,0,0,0-1.11719-.41895Zm0-1.2373h1.79a2.09451,2.09451,0,0,0,1.35156-.35547,1.33336,1.33336,0,0,0,.42578-1.08594,1.43621,1.43621,0,0,0-.41894-1.09472,1.796,1.796,0,0,0-1.27637-.39649h-1.87207Z"/><path class="cls-1" d="M140.80078,113.90967h-5.70117l-.09473-2.15821h-3.18652l-1.168,2.15821h-1.84082l5.29981-9.24219h6.29687v1.23828h-4.09961l.10742,2.60254h3.47852v1.23731h-3.42774l.127,2.92675h4.209Zm-8.24609-3.52246h2.39258l-.1709-4.04395-.03223-.00586Z"/><path class="cls-1" d="M151.14746,105.90576h-2.793v8.00391h-1.542v-8.00391h-2.793v-1.23828h7.12793Z"/><path class="cls-1" d="M159.98438,111.52881a1.18028,1.18028,0,0,0-.42872-.94141,4.02372,4.02372,0,0,0-1.51367-.65722,6.422,6.422,0,0,1-2.38379-1.07618,2.14032,2.14032,0,0,1-.834-1.75488,2.24158,2.24158,0,0,1,.92285-1.84082,3.75183,3.75183,0,0,1,2.38379-.72363,3.54588,3.54588,0,0,1,2.44726.82129,2.45457,2.45457,0,0,1,.89161,1.97168l-.0127.03808h-1.47851a1.48861,1.48861,0,0,0-.48243-1.15234,1.973,1.973,0,0,0-1.37793-.44141,2.02194,2.02194,0,0,0-1.29785.36719,1.16625,1.16625,0,0,0-.4541.9502,1.03693,1.03693,0,0,0,.49219.874,5.44713,5.44713,0,0,0,1.62793.65918,5.41778,5.41778,0,0,1,2.26562,1.10449,2.32037,2.32037,0,0,1,.77539,1.7959,2.16971,2.16971,0,0,1-.92382,1.83789,3.98928,3.98928,0,0,1-2.42774.68262,4.29132,4.29132,0,0,1-2.53906-.77149,2.366,2.366,0,0,1-1.06055-2.10449l.0127-.03809h1.48535a1.44081,1.44081,0,0,0,.584,1.25977,2.55661,2.55661,0,0,0,1.51758.416,2.23968,2.23968,0,0,0,1.332-.34375A1.09044,1.09044,0,0,0,159.98438,111.52881Z"/><path class="cls-1" d="M174.458,109.91064H173.3916v3.999h-1.542v-9.24219h1.542v3.917h.88184l2.90136-3.917h1.82813l-3.36426,4.41211,3.625,4.83008h-1.88574Z"/><path class="cls-1" d="M184.5,112.67236h4.24707v1.23731H182.958v-9.24219H184.5Z"/><path class="cls-1" d="M199.57617,104.66748v6.19531a2.87555,2.87555,0,0,1-1.00195,2.3584,4.00655,4.00655,0,0,1-2.62207.82227,3.87064,3.87064,0,0,1-2.57129-.8252,2.90455,2.90455,0,0,1-.9834-2.35547v-6.19531h1.542v6.19043a1.85549,1.85549,0,0,0,.54688,1.459,2.113,2.113,0,0,0,1.46582.48829,2.23427,2.23427,0,0,0,1.5166-.48829,1.822,1.822,0,0,0,.56543-1.459v-6.19043Z"/><path class="cls-1" d="M204.14746,113.90967v-9.24219h3.07227a3.99561,3.99561,0,0,1,2.39843.63184,2.18733,2.18733,0,0,1,.86329,1.88867,1.85443,1.85443,0,0,1-.36133,1.12305,2.13072,2.13072,0,0,1-1.00293.73632,2.06262,2.06262,0,0,1,1.26953.79395,2.3402,2.3402,0,0,1,.44433,1.415,2.37434,2.37434,0,0,1-.85058,1.97754,3.68326,3.68326,0,0,1-2.34863.67578Zm1.542-5.35059h1.70117a1.73773,1.73773,0,0,0,1.13282-.33984,1.17131,1.17131,0,0,0,.416-.96192,1.19513,1.19513,0,0,0-.43847-1.01855,2.08485,2.08485,0,0,0-1.28125-.333h-1.53028Zm0,1.14844v2.96484h1.94239a1.8621,1.8621,0,0,0,1.23144-.36425,1.30266,1.30266,0,0,0,.43164-1.05469,1.65057,1.65057,0,0,0-.3623-1.14063,1.4398,1.4398,0,0,0-1.12891-.40527Z"/></g></g></svg>