<svg xmlns="http://www.w3.org/2000/svg" viewBox="0 0 210.38855 128.45313"><defs><style>.cls-1{fill:#8f2022;}</style></defs><g id="Layer_2" data-name="Layer 2"><g id="GIK_LOGO" data-name="GIK LOGO"><path d="M118.25,1.5v94h-3V1.5Zm-10.5,94h3V1.5h-3Zm-7.5,0h3V1.5h-3Zm-7.5,0h3V1.5h-3Z"/><path d="M154.25,1.5v94h-3V1.5Zm-10.5,94h3V1.5h-3Zm-7.5,0h3V1.5h-3Zm-7.5,0h3V1.5h-3Z"/><path d="M42.5,97A42.21957,42.21957,0,0,1,12.44824,84.55176C1.479,73.584,0,60.17285,0,48.5,0,37.51025,1.415,23.481,12.44824,12.44824a42.49925,42.49925,0,0,1,60.104,0l-2.1211,2.1211a39.50031,39.50031,0,0,0-55.86181,0C6.46,22.67871,3,32.82568,3,48.5,3,59.55762,4.37451,72.23633,14.56934,82.43066a39.50031,39.50031,0,0,0,55.86181,0C81.13135,71.73047,82.61133,55.35352,81.83691,43H42.50049V40H84.62354l.10742,1.38379c1.019,13.11816-.2666,31.25586-12.17871,43.168A42.22238,42.22238,0,0,1,42.5,97ZM67.249,79.24805a31.75479,31.75479,0,0,0,8.50635-14.86133,60.145,60.145,0,0,0,1.73828-15.37891L77.501,47.5H42.50049v3H74.4751a54.67236,54.67236,0,0,1-1.61817,13.11328,28.86907,28.86907,0,0,1-7.729,13.51367,31.99952,31.99952,0,0,1-45.25537,0C13.21533,70.46973,10.5,62.17676,10.5,48.5c0-13.49609,2.80322-22.05762,9.37256-28.62744a32.0007,32.0007,0,0,1,45.25537,0l2.12109-2.1211a34.99963,34.99963,0,0,0-49.49756,0C10.56592,24.937,7.5,34.13281,7.5,48.5c0,14.55859,2.97021,23.46777,10.25146,30.74805a34.99844,34.99844,0,0,0,49.49756,0Zm-5.30371-5.30274c4.21-4.21,6.77344-10.02051,7.61914-17.27148L69.75977,55H42.50049v3H66.354c-.93554,5.83984-3.08007,10.374-6.52978,13.82422a24.49932,24.49932,0,0,1-34.64844-.001C20.86865,67.5166,18,61.90234,18,48.5c0-11.46924,2.0791-18.227,7.17627-23.32422a24.5005,24.5005,0,0,1,34.64844,0l2.12109-2.12109a27.49939,27.49939,0,0,0-38.89062,0C17.3335,28.77588,15,36.148,15,48.5c0,14.43359,3.21973,20.61035,8.0542,25.44434a27.49881,27.49881,0,0,0,38.89111.001Zm-2.30957-9.23144L60.8335,62.5h-18.333v3h12.9873A17.39728,17.39728,0,0,1,42.5,71.5a16.88589,16.88589,0,0,1-12.021-4.98047C27.95947,64,25.5,60.53418,25.5,48.5c0-10.82324,1.99072-15.03174,4.98-18.021a17.00029,17.00029,0,0,1,24.0415,0l2.1211-2.12109a19.99919,19.99919,0,0,0-28.28369,0C24.84229,31.87451,22.5,36.64551,22.5,48.5c0,13.18066,2.894,17.17773,5.85742,20.14062A19.86851,19.86851,0,0,0,42.5,74.5C49.58252,74.5,56.46875,70.56738,59.63574,64.71387Z"/><polygon points="205.705 95.5 209.299 95.5 178.844 49.326 210.389 1.5 206.795 1.5 175.25 49.326 205.705 95.5"/><polygon points="198.205 95.5 201.799 95.5 171.344 49.326 202.889 1.5 199.295 1.5 167.75 49.326 198.205 95.5"/><polygon points="190.705 95.5 194.299 95.5 163.844 49.326 195.389 1.5 191.795 1.5 160.25 49.326 190.705 95.5"/><polygon points="186.799 95.5 156.344 49.326 187.888 1.5 184.295 1.5 152.75 49.326 183.205 95.5 186.799 95.5"/><path class="cls-1" d="M20.40134,123.32617H12.06149l-1.88672,5.127h-2.748L15.124,108.54688h2.31055l7.57422,19.90624h-2.748Zm-7.50586-2.25586H19.5947l-3.28125-9.06445h-.082Z"/><path class="cls-1" d="M56.76364,110.666H50.3652v17.7871H47.67184V110.666H41.28708v-2.11914H56.76364Z"/><path class="cls-1" d="M78.06247,126.334h9.41992v2.11914H75.36911V108.54688h2.69336Z"/><path class="cls-1" d="M117.98337,119.22461h-9.11914V126.334H119.3779v2.11914h-13.207V108.54688h13.05664V110.666H108.86423v6.43945h9.11914Z"/><path class="cls-1" d="M151.9697,110.666h-6.39844v17.7871H142.8779V110.666h-6.38477v-2.11914H151.9697Z"/><path class="cls-1" d="M173.41891,128.45312h-2.707V108.54688h2.707Z"/><path class="cls-1" d="M199.18942,119.4707H196.8652v8.98242h-2.69336V108.54688h2.69336v8.80468h2.07813l7.12305-8.80468h2.98046l.041.06835-7.72461,9.55665,8.28516,10.21289-.041.06835H206.3945Z"/></g></g></svg>