<svg xmlns="http://www.w3.org/2000/svg" viewBox="0 0 241.7334 114.0437"><defs><style>.cls-1{fill:#8f2022;}</style></defs><g id="Layer_2" data-name="Layer 2"><g id="GIK_LOGO" data-name="GIK LOGO"><path d="M118.25,1.5v94h-3V1.5Zm-10.5,94h3V1.5h-3Zm-7.5,0h3V1.5h-3Zm-7.5,0h3V1.5h-3Z"/><path d="M154.25,1.5v94h-3V1.5Zm-10.5,94h3V1.5h-3Zm-7.5,0h3V1.5h-3Zm-7.5,0h3V1.5h-3Z"/><path d="M42.5,97A42.21957,42.21957,0,0,1,12.44824,84.55176C1.479,73.584,0,60.17285,0,48.5,0,37.51025,1.415,23.481,12.44824,12.44824a42.49925,42.49925,0,0,1,60.104,0l-2.1211,2.1211a39.50031,39.50031,0,0,0-55.86181,0C6.46,22.67871,3,32.82568,3,48.5,3,59.55762,4.37451,72.23633,14.56934,82.43066a39.50031,39.50031,0,0,0,55.86181,0C81.13135,71.73047,82.61133,55.35352,81.83691,43H42.50049V40H84.62354l.10742,1.38379c1.019,13.11816-.2666,31.25586-12.17871,43.168A42.22238,42.22238,0,0,1,42.5,97ZM67.249,79.24805a31.75479,31.75479,0,0,0,8.50635-14.86133,60.145,60.145,0,0,0,1.73828-15.37891L77.501,47.5H42.50049v3H74.4751a54.67236,54.67236,0,0,1-1.61817,13.11328,28.86907,28.86907,0,0,1-7.729,13.51367,31.99952,31.99952,0,0,1-45.25537,0C13.21533,70.46973,10.5,62.17676,10.5,48.5c0-13.49609,2.80322-22.05762,9.37256-28.62744a32.0007,32.0007,0,0,1,45.25537,0l2.12109-2.1211a34.99963,34.99963,0,0,0-49.49756,0C10.56592,24.937,7.5,34.13281,7.5,48.5c0,14.55859,2.97021,23.46777,10.25146,30.74805a34.99844,34.99844,0,0,0,49.49756,0Zm-5.30371-5.30274c4.21-4.21,6.77344-10.02051,7.61914-17.27148L69.75977,55H42.50049v3H66.354c-.93554,5.83984-3.08007,10.374-6.52978,13.82422a24.49932,24.49932,0,0,1-34.64844-.001C20.86865,67.5166,18,61.90234,18,48.5c0-11.46924,2.0791-18.227,7.17627-23.32422a24.5005,24.5005,0,0,1,34.64844,0l2.12109-2.12109a27.49939,27.49939,0,0,0-38.89062,0C17.3335,28.77588,15,36.148,15,48.5c0,14.43359,3.21973,20.61035,8.0542,25.44434a27.49881,27.49881,0,0,0,38.89111.001Zm-2.30957-9.23144L60.8335,62.5h-18.333v3h12.9873A17.39728,17.39728,0,0,1,42.5,71.5a16.88589,16.88589,0,0,1-12.021-4.98047C27.95947,64,25.5,60.53418,25.5,48.5c0-10.82324,1.99072-15.03174,4.98-18.021a17.00029,17.00029,0,0,1,24.0415,0l2.1211-2.12109a19.99919,19.99919,0,0,0-28.28369,0C24.84229,31.87451,22.5,36.64551,22.5,48.5c0,13.18066,2.894,17.17773,5.85742,20.14062A19.86851,19.86851,0,0,0,42.5,74.5C49.58252,74.5,56.46875,70.56738,59.63574,64.71387Z"/><polygon points="205.705 95.5 209.299 95.5 178.844 49.326 210.389 1.5 206.795 1.5 175.25 49.326 205.705 95.5"/><polygon points="198.205 95.5 201.799 95.5 171.344 49.326 202.889 1.5 199.295 1.5 167.75 49.326 198.205 95.5"/><polygon points="190.705 95.5 194.299 95.5 163.844 49.326 195.389 1.5 191.795 1.5 160.25 49.326 190.705 95.5"/><polygon points="186.799 95.5 156.344 49.326 187.888 1.5 184.295 1.5 152.75 49.326 183.205 95.5 186.799 95.5"/><path class="cls-1" d="M235.35254,79.88647V89.7146l6.043,2.22461v3.23828l-23.46094-9.07227V83.38257l23.46094-8.92676v3.23926Zm-2.6582,8.84571V80.83667l-10.6836,3.86719v.09668Z"/><path class="cls-1" d="M219.75488,67.91382h4.20606V64.61108h2.35254v3.30274h10.58593A2.374,2.374,0,0,0,238.624,67.407a1.83608,1.83608,0,0,0,.499-1.3457,3.18254,3.18254,0,0,0-.06446-.60449,3.70911,3.70911,0,0,0-.16113-.58789l2.17578-.41895a2.81184,2.81184,0,0,1,.47559,1.03906,5.27733,5.27733,0,0,1,.18457,1.37793,4.11,4.11,0,0,1-1.168,3.07813,5.0736,5.0736,0,0,1-3.666,1.14355H226.31348v2.77149h-2.35254V71.08862h-4.20606Z"/><path class="cls-1" d="M241.39551,57.26343v3.17383H216.25879V57.26343Z"/><path class="cls-1" d="M241.7334,45.14624a7.35421,7.35421,0,0,1-2.42481,5.793,9.12931,9.12931,0,0,1-6.292,2.15039h-.709a8.94074,8.94074,0,0,1-6.19532-2.21484,6.82463,6.82463,0,0,1-2.47363-5.24512,6.603,6.603,0,0,1,2.127-5.333,8.47368,8.47368,0,0,1,5.67188-1.80469H233.419V49.80249l.08007.04883a6.85191,6.85191,0,0,0,4.12207-1.27344,4.05633,4.05633,0,0,0,1.61524-3.43164,7.9996,7.9996,0,0,0-.459-2.82812,6.515,6.515,0,0,0-1.26562-2.10254l2.06543-1.24121a7.38464,7.38464,0,0,1,1.54,2.46582A9.92338,9.92338,0,0,1,241.7334,45.14624Zm-15.59766.4834a3.44436,3.44436,0,0,0,1.34082,2.72363A6.33578,6.33578,0,0,0,230.8418,49.738l.08008-.03125v-8.041h-.418a4.83934,4.83934,0,0,0-3.11524.999A3.56509,3.56509,0,0,0,226.13574,45.62964Z"/><path class="cls-1" d="M219.75488,30.74h4.20606V27.43726h2.35254V30.74h10.58593a2.374,2.374,0,0,0,1.72461-.50684,1.83608,1.83608,0,0,0,.499-1.3457,3.18254,3.18254,0,0,0-.06446-.60449,3.70911,3.70911,0,0,0-.16113-.58789l2.17578-.419a2.81181,2.81181,0,0,1,.47559,1.03907,5.27728,5.27728,0,0,1,.18457,1.37793,4.11,4.11,0,0,1-1.168,3.07812,5.07356,5.07356,0,0,1-3.666,1.14355H226.31348v2.77149h-2.35254V33.91479h-4.20606Z"/><path class="cls-1" d="M219.49707,20.0896v3.17383h-3.23828V20.0896Zm21.89844,0v3.17383H223.96094V20.0896Z"/><path class="cls-1" d="M233.32227,9.95483v2.0625h8.07324v3.17383H216.25879V12.01733H230.8252V9.98608l-6.86426-4.76953V1.41382L231.875,7.37671,241.39551.5603V4.29858Z"/><path d="M15.39648,112.65991a3.22924,3.22924,0,0,1-1.209.95508,4.76362,4.76362,0,0,1-2.16211.42871,3.76407,3.76407,0,0,1-2.748-1.05762,3.65444,3.65444,0,0,1-1.0791-2.73242V108.324a3.77417,3.77417,0,0,1,1.01856-2.73242,3.49156,3.49156,0,0,1,2.63086-1.05664,3.691,3.691,0,0,1,2.53613.80274,2.721,2.721,0,0,1,.92383,2.09179l-.0127.03809h-1.46a1.78853,1.78853,0,0,0-.543-1.22852,1.9912,1.9912,0,0,0-1.4248-.46679,1.90235,1.90235,0,0,0-1.5459.71679,2.77733,2.77733,0,0,0-.58691,1.82032v1.94043a2.66664,2.66664,0,0,0,.63769,1.83593,2.10536,2.10536,0,0,0,1.65332.71973,3.44547,3.44547,0,0,0,1.17481-.167,1.61782,1.61782,0,0,0,.65332-.39649v-1.874h-1.834v-1.15527h3.377Z"/><path d="M25.60449,109.75269H21.56055v2.91992H26.251v1.2373H20.01855v-9.24219H26.207V105.906H21.56055v2.60839h4.04394Z"/><path d="M37.5,113.90991H35.96387l-4.10059-6.74707-.03808.0127v6.73437h-1.542v-9.24219h1.542l4.10058,6.74122.03809-.0127v-6.72852H37.5Z"/><path d="M48.57129,105.906h-2.793v8.0039h-1.542V105.906h-2.793v-1.23829h7.12793Z"/><path d="M59.52148,110.12085a3.90541,3.90541,0,0,1-1.06347,2.80859,3.64265,3.64265,0,0,1-2.75781,1.11426,3.52534,3.52534,0,0,1-2.70118-1.11426,3.96153,3.96153,0,0,1-1.03711-2.80859v-1.66309A3.96254,3.96254,0,0,1,52.999,105.6521a3.509,3.509,0,0,1,2.69532-1.11719,3.64519,3.64519,0,0,1,2.76074,1.11719,3.9004,3.9004,0,0,1,1.0664,2.80566Zm-1.53613-1.67578a2.863,2.863,0,0,0-.61914-1.89844,2.0617,2.0617,0,0,0-1.67187-.74219,1.94151,1.94151,0,0,0-1.60645.74219,2.95715,2.95715,0,0,0-.59082,1.89844v1.67578a2.98838,2.98838,0,0,0,.59082,1.91309,1.94277,1.94277,0,0,0,1.61231.74609,2.05185,2.05185,0,0,0,1.67285-.74219,2.91581,2.91581,0,0,0,.6123-1.917Z"/><path d="M69.5127,109.96851H65.46289v3.9414h-1.542v-9.24219h6.23926V105.906H65.46289v2.82421H69.5127Z"/><path d="M80.63477,105.906h-2.793v8.0039h-1.542V105.906h-2.793v-1.23829h7.12793Z"/><path d="M90.15723,109.75269H86.11328v2.91992h4.69043v1.2373H84.57129v-9.24219h6.18848V105.906H86.11328v2.60839h4.04395Z"/><path d="M102.43359,113.90991h-1.543v-9.24219h1.543Z"/><path d="M107.27148,113.90991v-9.24219h2.9961a3.874,3.874,0,0,1,2.85937,1.09864,3.816,3.816,0,0,1,1.10157,2.82422v1.40332a3.80228,3.80228,0,0,1-1.10157,2.82422,3.88467,3.88467,0,0,1-2.85937,1.09179Zm1.542-8.0039v6.7666h1.40918a2.27766,2.27766,0,0,0,1.80566-.749,2.81982,2.81982,0,0,0,.65723-1.93359v-1.41406a2.80443,2.80443,0,0,0-.65723-1.92188,2.277,2.277,0,0,0-1.80566-.748Z"/><path d="M120.08789,110.07593v3.834h-1.542v-9.24219H121.96a3.66156,3.66156,0,0,1,2.39356.69825,2.44189,2.44189,0,0,1,.84472,1.99316,2.05634,2.05634,0,0,1-.37207,1.23438,2.54633,2.54633,0,0,1-1.082.8291,1.93571,1.93571,0,0,1,1.124.80859,2.60669,2.60669,0,0,1,.3418,1.38086v.76856a3.12521,3.12521,0,0,0,.10156.793,1.11843,1.11843,0,0,0,.34375.59082v.14551h-1.58789a1.03475,1.03475,0,0,1-.32617-.66015,5.48977,5.48977,0,0,1-.07324-.88184v-.74316a1.55586,1.55586,0,0,0-.40625-1.12989,1.48382,1.48382,0,0,0-1.11719-.41894Zm0-1.23731h1.79a2.09451,2.09451,0,0,0,1.35156-.35547,1.33335,1.33335,0,0,0,.42578-1.08593,1.43623,1.43623,0,0,0-.41894-1.09473A1.796,1.796,0,0,0,121.96,105.906h-1.87207Z"/><path d="M140.80078,113.90991h-5.70117l-.09473-2.1582h-3.18652l-1.168,2.1582h-1.84082l5.29981-9.24219h6.29687V105.906h-4.09961l.10742,2.60253h3.47852v1.23731h-3.42774l.127,2.92676h4.209Zm-8.24609-3.52246h2.39258l-.1709-4.04394-.03223-.00586Z"/><path d="M151.14746,105.906h-2.793v8.0039h-1.542V105.906h-2.793v-1.23829h7.12793Z"/><path d="M159.98438,111.52905a1.18026,1.18026,0,0,0-.42872-.9414,4.0237,4.0237,0,0,0-1.51367-.65723,6.42186,6.42186,0,0,1-2.38379-1.07617,2.14032,2.14032,0,0,1-.834-1.75488,2.24161,2.24161,0,0,1,.92285-1.84083,3.75183,3.75183,0,0,1,2.38379-.72363,3.54588,3.54588,0,0,1,2.44726.82129,2.45457,2.45457,0,0,1,.89161,1.97168l-.0127.03809h-1.47851a1.48865,1.48865,0,0,0-.48243-1.15235,1.97306,1.97306,0,0,0-1.37793-.4414,2.02194,2.02194,0,0,0-1.29785.36718,1.16626,1.16626,0,0,0-.4541.9502,1.03691,1.03691,0,0,0,.49219.874,5.44713,5.44713,0,0,0,1.62793.65918,5.4179,5.4179,0,0,1,2.26562,1.10449,2.32037,2.32037,0,0,1,.77539,1.7959,2.1697,2.1697,0,0,1-.92382,1.83789,3.98928,3.98928,0,0,1-2.42774.68262,4.29131,4.29131,0,0,1-2.53906-.77148,2.366,2.366,0,0,1-1.06055-2.1045l.0127-.03808h1.48535a1.44078,1.44078,0,0,0,.584,1.25976,2.55654,2.55654,0,0,0,1.51758.416,2.23968,2.23968,0,0,0,1.332-.34375A1.09043,1.09043,0,0,0,159.98438,111.52905Z"/><path d="M174.458,109.91089H173.3916v3.999h-1.542v-9.24219h1.542v3.917h.88184l2.90136-3.917h1.82813l-3.36426,4.41211,3.625,4.83008h-1.88574Z"/><path d="M184.5,112.67261h4.24707v1.2373H182.958v-9.24219H184.5Z"/><path d="M199.57617,104.66772V110.863a2.87558,2.87558,0,0,1-1.00195,2.3584,4.00655,4.00655,0,0,1-2.62207.82226,3.87069,3.87069,0,0,1-2.57129-.82519,2.90458,2.90458,0,0,1-.9834-2.35547v-6.19532h1.542v6.19043a1.85552,1.85552,0,0,0,.54688,1.459,2.113,2.113,0,0,0,1.46582.48828,2.23432,2.23432,0,0,0,1.5166-.48828,1.82206,1.82206,0,0,0,.56543-1.459v-6.19043Z"/><path d="M204.14746,113.90991v-9.24219h3.07227a3.99561,3.99561,0,0,1,2.39843.63184,2.18734,2.18734,0,0,1,.86329,1.88867,1.85441,1.85441,0,0,1-.36133,1.123,2.13074,2.13074,0,0,1-1.00293.73633,2.06257,2.06257,0,0,1,1.26953.79394,2.3402,2.3402,0,0,1,.44433,1.415,2.37432,2.37432,0,0,1-.85058,1.97754,3.6832,3.6832,0,0,1-2.34863.67578Zm1.542-5.35058h1.70117a1.73773,1.73773,0,0,0,1.13282-.33985,1.17129,1.17129,0,0,0,.416-.96191,1.19515,1.19515,0,0,0-.43847-1.01856,2.08492,2.08492,0,0,0-1.28125-.333h-1.53028Zm0,1.14843v2.96485h1.94239a1.862,1.862,0,0,0,1.23144-.36426,1.30264,1.30264,0,0,0,.43164-1.05469,1.65054,1.65054,0,0,0-.3623-1.14062,1.4398,1.4398,0,0,0-1.12891-.40528Z"/></g></g></svg>